<svg width="128" height="128" viewBox="0 0 128 128" fill="none" xmlns="http://www.w3.org/2000/svg">
<circle cx="64" cy="64" r="64" fill="#DBA16B"/>
<path d="M57 98.5625V77.1875L62.25 62.1875C62.5625 61.5 63.0156 60.9219 63.6094 60.4531C64.2031 59.9844 64.9375 59.75 65.8125 59.75H93.1875C94.0625 59.75 94.8125 59.9844 95.4375 60.4531C96.0625 60.9219 96.5 61.5 96.75 62.1875L102 77.1875V98.5625C102 99.25 101.766 99.8281 101.297 100.297C100.828 100.766 100.25 101 99.5625 101H96.9375C96.25 101 95.6719 100.766 95.2031 100.297C94.7344 99.8281 94.5 99.25 94.5 98.5625V95.375H64.5V98.5625C64.5 99.25 64.2656 99.8281 63.7969 100.297C63.3281 100.766 62.75 101 62.0625 101H59.4375C58.75 101 58.1719 100.766 57.7031 100.297C57.2344 99.8281 57 99.25 57 98.5625ZM64.5 72.875H94.5L91.875 65.375H67.125L64.5 72.875ZM68.25 87.875C69.3125 87.875 70.2031 87.5156 70.9219 86.7969C71.6406 86.0781 72 85.1875 72 84.125C72 83.0625 71.6406 82.1719 70.9219 81.4531C70.2031 80.7344 69.3125 80.375 68.25 80.375C67.1875 80.375 66.2969 80.7344 65.5781 81.4531C64.8594 82.1719 64.5 83.0625 64.5 84.125C64.5 85.1875 64.8594 86.0781 65.5781 86.7969C66.2969 87.5156 67.1875 87.875 68.25 87.875ZM90.75 87.875C91.8125 87.875 92.7031 87.5156 93.4219 86.7969C94.1406 86.0781 94.5 85.1875 94.5 84.125C94.5 83.0625 94.1406 82.1719 93.4219 81.4531C92.7031 80.7344 91.8125 80.375 90.75 80.375C89.6875 80.375 88.7969 80.7344 88.0781 81.4531C87.3594 82.1719 87 83.0625 87 84.125C87 85.1875 87.3594 86.0781 88.0781 86.7969C88.7969 87.5156 89.6875 87.875 90.75 87.875ZM42 71V63.5H49.5V71H42ZM60.75 48.5V41H68.25V48.5H60.75ZM42 86V78.5H49.5V86H42ZM42 101V93.5H49.5V101H42ZM27 101V48.5H45.75V26H83.25V52.25H75.75V33.5H53.25V56H34.5V101H27ZM62.625 89.75H96.375V78.5H62.625V89.75Z" fill="black"/>
</svg>
